<svg xmlns="http://www.w3.org/2000/svg" width="1813" height="674" viewBox="0 0 479.69 178.329"><defs><clipPath id="a" clipPathUnits="userSpaceOnUse"><path d="M-126.403-77.682H295.92v193.455h-422.323Z"/></clipPath><clipPath id="b" clipPathUnits="userSpaceOnUse"><path d="M-137.943-113.021H284.38V80.434h-422.323Z"/></clipPath><clipPath id="c" clipPathUnits="userSpaceOnUse"><path d="M-188.033-77.829H234.29v193.455h-422.323Z"/></clipPath><clipPath id="d" clipPathUnits="userSpaceOnUse"><path d="M-212.528-92.88h422.323v193.455h-422.323Z"/></clipPath><clipPath id="e" clipPathUnits="userSpaceOnUse"><path d="M-233.323-113.021H189V80.434h-422.323Z"/></clipPath><clipPath id="f" clipPathUnits="userSpaceOnUse"><path d="M-250.99-113.166h422.323V80.29H-250.99Z"/></clipPath><clipPath id="g" clipPathUnits="userSpaceOnUse"><path d="M-283.861-83.573h422.323v193.455h-422.323Z"/></clipPath><clipPath id="h" clipPathUnits="userSpaceOnUse"><path d="M-311.575-108.582h422.323V84.873h-422.323Z"/></clipPath><clipPath id="i" clipPathUnits="userSpaceOnUse"><path d="M-161.955-60.606h422.323v193.455h-422.323Z"/></clipPath><clipPath id="j" clipPathUnits="userSpaceOnUse"><path d="M-172.278-63.873h422.323v193.455h-422.323Z"/></clipPath><clipPath id="k" clipPathUnits="userSpaceOnUse"><path d="M-175.428-67h422.323v193.454h-422.323Z"/></clipPath><clipPath id="l" clipPathUnits="userSpaceOnUse"><path d="M-183.632-67H238.69v193.454h-422.323Z"/></clipPath><clipPath id="m" clipPathUnits="userSpaceOnUse"><path d="M-196.508-64.295h422.323V129.16h-422.323Z"/></clipPath><clipPath id="n" clipPathUnits="userSpaceOnUse"><path d="M-202.454-60.606H219.87v193.455h-422.323Z"/></clipPath><clipPath id="o" clipPathUnits="userSpaceOnUse"><path d="M-205.946-67h422.323v193.454h-422.323Z"/></clipPath><clipPath id="p" clipPathUnits="userSpaceOnUse"><path d="M397.362 229.278h422.323v193.455H397.362Z"/></clipPath><clipPath id="q" clipPathUnits="userSpaceOnUse"><path d="M-215.822-67H206.5v193.454h-422.323Z"/></clipPath><clipPath id="r" clipPathUnits="userSpaceOnUse"><path d="M-226.694-61.359h422.323v193.455h-422.323Z"/></clipPath><clipPath id="s" clipPathUnits="userSpaceOnUse"><path d="M-238.756-65.214h422.323v193.455h-422.323Z"/></clipPath><clipPath id="t" clipPathUnits="userSpaceOnUse"><path d="M-247.917-62.01h422.323v193.455h-422.323Z"/></clipPath><clipPath id="u" clipPathUnits="userSpaceOnUse"><path d="M-250.787-67h422.323v193.454h-422.323Z"/></clipPath><clipPath id="v" clipPathUnits="userSpaceOnUse"><path d="M-257.046-70.485h422.323V122.97h-422.323Z"/></clipPath><clipPath id="w" clipPathUnits="userSpaceOnUse"><path d="M-270.534-63.873h422.323v193.455h-422.323Z"/></clipPath><clipPath id="x" clipPathUnits="userSpaceOnUse"><path d="M397.362 229.278h422.323v193.455H397.362Z"/></clipPath><clipPath id="y" clipPathUnits="userSpaceOnUse"><path d="M-282.586-63.873h422.323v193.455h-422.323Z"/></clipPath><clipPath id="z" clipPathUnits="userSpaceOnUse"><path d="M-288.403-61.359H133.92v193.455h-422.323Z"/></clipPath><clipPath id="A" clipPathUnits="userSpaceOnUse"><path d="M-294.116-57.926h422.323V135.53h-422.323Z"/></clipPath></defs><path d="M0 0c0-.373-.071-.519-.368-.59-2.36-.961-5.313-1.183-8.189-1.183-11.953 0-19.034 8.192-19.034 18.814 0 10.92 8.116 19.038 20.288 19.038 3.691 0 5.681-.37 6.935-.812.297-.146.368-.368.368-.812l-.071-6.565c0-.516-.297-.516-.59-.445-1.551.59-3.47.961-6.346.961-6.716 0-11.439-3.985-11.439-11.069 0-8.044 5.829-11.14 11.511-11.14 2.656 0 4.945.222 6.419.738.368.146.516-.076.516-.37Z" clip-path="url(#a)" style="fill:#5c2483;fill-opacity:1;fill-rule:nonzero;stroke:none" transform="matrix(2.16689 0 0 -2.16689 65.002 133.915)"/><path d="M0 0c.294 0 .516-.071.661-.442 4.798-13.797 7.306-21.767 8.264-25.381 2.435 7.454 5.02 15.051 8.338 25.381.148.294.368.442.812.442h7.6c.442 0 .516-.22.442-.587C20.803-16.895 12.349-37.434 6.372-51.08c-.148-.296-.368-.519-.958-.519l-8.081-.714c-.442 0-.545.243-.368.59 2.215 4.43 5.025 10.404 7.388 16.011.148.445.219.667.071 1.183-1.99 4.869-9.073 22.428-13.5 34.013-.148.296.071.516.442.516Z" clip-path="url(#b)" style="fill:#5c2483;fill-opacity:1;fill-rule:nonzero;stroke:none" transform="matrix(2.16689 0 0 -2.16689 90.006 57.338)"/><path d="M0 0c0-.445-.071-.738-.442-.886-1.992-.739-3.837-1.032-6.271-1.032-6.049 0-9.666 2.95-9.666 10.256v19.404h-4.647c-.368.071-.518.222-.518.664v6.199c0 .44.15.588.59.588l4.575.016c.071 2.585 0 6.52 0 9.06.071.368.222.59.59.664l7.83.693c.351.035.516 0 .516-.367v-10.05l7.223-.016c.371 0 .516-.148.516-.516v-6.419c0-.368-.145-.516-.516-.516h-7.231V10.254c0-3.245 1.032-4.795 4.207-4.795.955 0 1.77.071 2.802.294.222.076.442 0 .442-.44Z" clip-path="url(#c)" style="fill:#5c2483;fill-opacity:1;fill-rule:nonzero;stroke:none" transform="matrix(2.16689 0 0 -2.16689 198.546 133.596)"/><path d="M0 0c-1.109.148-2.363.222-4.059.222-5.829 0-8.409-1.918-8.409-5.091 0-2.731 1.915-5.091 7.226-5.091 1.921 0 3.617.222 5.242.884zm8.632-8.706c0-1.622 0-3.098.148-4.649 0-.145 0-.219-.148-.296-6.049-2.58-10.328-3.318-15.348-3.318-8.041 0-14.461 3.762-14.461 12.1 0 7.819 7.01 11.733 16.602 11.733 2.212 0 3.908-.077 4.575-.148V7.6c0 1.698-.961 5.535-7.454 5.535-3.686 0-6.935-.741-9.666-2.069-.222-.072-.59 0-.59.444v6.42c0 .368.074.516.444.735 3.173 1.477 7.232 2.218 11.217 2.218 10.254 0 14.681-6.422 14.681-14.612z" clip-path="url(#d)" style="fill:#5c2483;fill-opacity:1;fill-rule:nonzero;stroke:none" transform="matrix(2.16689 0 0 -2.16689 251.624 100.983)"/><path d="M0 0c.445 0 .667-.148.812-.587.368-.961.662-2.808.739-4.43C4.059-1.916 8.068.738 13.159.738c.442 0 .786-.214.786-.762v-7.573c0-.37-.148-.519-.664-.519-5.237.149-9.59-1.696-11.289-3.91v-23.757c0-.445-.219-.59-.664-.59h-7.673c-.514 0-.665.222-.665.59 0 0 .027 32.737.027 35.341 0 .371.074.442.444.442z" clip-path="url(#e)" style="fill:#5c2483;fill-opacity:1;fill-rule:nonzero;stroke:none" transform="matrix(2.16689 0 0 -2.16689 296.685 57.338)"/><path d="M0 0c0 .328.267.595.595.595a8.404 8.404 0 0 0 8.404-8.406v-28.125c0-.442-.151-.588-.667-.588H.738c-.516 0-.738.222-.738.664Z" clip-path="url(#f)" style="fill:#5c2483;fill-opacity:1;fill-rule:nonzero;stroke:none" transform="matrix(2.16689 0 0 -2.16689 334.966 57.025)"/><path d="M0 0c-6.24.058-11.251 5.163-11.193 11.402.056 6.239 5.162 11.254 11.402 11.196 6.239-.059 11.251-5.163 11.193-11.405C11.346 4.953 6.239-.058 0 0m2.77 29.861c-2.966.439-7.295.138-9.462.278-7.607.513-12.831 7.933-12.844 15.31-.003 5.61-3.165 8.777-7.34 9.542-2.654.495-5.242-.259-7.195-1.802-1.911-1.588-3.186-3.967-3.249-6.666-.117-4.241 2.328-7.991 7.816-9.152 7.216-1.54 13.395-8.19 12.32-15.737-.312-2.148-1.527-6.559-1.706-9.552C-19.544 1.675-11.156-7.401-.537-7.626c4.675-.101 9.012 1.458 12.376 4.183 3.36 2.726 5.842 6.634 6.652 11.241C20.372 18.054 13.32 28.3 2.77 29.861" clip-path="url(#g)" style="fill:#35b7b8;fill-opacity:1;fill-rule:nonzero;stroke:none" transform="matrix(2.16689 0 0 -2.16689 406.194 121.15)"/><path d="M0 0c0 .746-.545 1.286-1.593 1.286h-1.323v-2.54h1.323C-.545-1.254 0-.781 0 0m-2.916-2.104v-2.609h-.947v6.846h2.27C-.032 2.133.984 1.32.984.032c0-1.016-.645-1.694-1.593-1.964l1.932-2.781H.201l-1.762 2.609zm6.71.815c0 3.152-2.201 5.39-5.387 5.39s-5.424-2.238-5.424-5.39c0-3.186 2.238-5.424 5.424-5.424s5.387 2.238 5.387 5.424m-11.761 0c0 3.628 2.68 6.306 6.374 6.306s6.372-2.678 6.372-6.306c0-3.662-2.678-6.34-6.372-6.34s-6.374 2.678-6.374 6.34" clip-path="url(#h)" style="fill:#5c2483;fill-opacity:1;fill-rule:nonzero;stroke:none" transform="matrix(2.16689 0 0 -2.16689 466.246 66.957)"/><path d="M0 0c-2.757 0-4.76 2.043-4.76 4.736 0 2.678 1.966 4.761 4.747 4.761.984 0 1.876-.257 2.604-.704v-.855A4.47 4.47 0 0 1 0 8.769c-2.336 0-3.982-1.736-3.982-4.009C-3.982 2.477-2.35.728.037.728c1.011 0 1.916.33 2.644.868V.754C1.94.267.982 0 0 0" clip-path="url(#i)" style="fill:#5c2483;fill-opacity:1;fill-rule:nonzero;stroke:none" transform="matrix(2.16689 0 0 -2.16689 142.038 170.916)"/><path d="M0 0c0 1.455-1.058 2.567-2.501 2.567S-5.004 1.455-5.004 0c0-1.469 1.061-2.577 2.503-2.577S0-1.469 0 0m-5.755 0c0 1.826 1.378 3.255 3.254 3.255S.754 1.826.754 0c0-1.839-1.378-3.268-3.255-3.268-1.876 0-3.254 1.429-3.254 3.268" clip-path="url(#j)" style="fill:#5c2483;fill-opacity:1;fill-rule:nonzero;stroke:none" transform="matrix(2.16689 0 0 -2.16689 164.407 163.836)"/><path d="M0 0h.754v-.855l.024-.013c.55.511 1.378.995 2.387.995.664 0 1.212-.204 1.622-.624.42-.434.574-1.009.574-1.863v-3.906h-.754v3.802c0 .691-.101 1.136-.408 1.443-.293.293-.701.447-1.212.447-.844 0-1.635-.421-2.233-1.022v-4.67H0Z" clip-path="url(#k)" style="fill:#5c2483;fill-opacity:1;fill-rule:nonzero;stroke:none" transform="matrix(2.16689 0 0 -2.16689 171.233 157.06)"/><path d="M0 0h.754v-.855l.024-.013c.55.511 1.379.995 2.387.995.664 0 1.212-.204 1.622-.624.42-.434.574-1.009.574-1.863v-3.906h-.754v3.802c0 .691-.101 1.136-.408 1.443-.293.293-.701.447-1.212.447-.844 0-1.635-.421-2.233-1.022v-4.67H0Z" clip-path="url(#l)" style="fill:#5c2483;fill-opacity:1;fill-rule:nonzero;stroke:none" transform="matrix(2.16689 0 0 -2.16689 189.01 157.06)"/><path d="M0 0c-.026 1.646-1.188 2.143-2.08 2.143-1.085 0-2.146-.727-2.297-2.143Zm-1.799-3.689c-1.953 0-3.345 1.289-3.345 3.242 0 1.966 1.365 3.281 3.077 3.281C-.548 2.834.728 1.786.728-.103c0-.191-.014-.394-.027-.521H-4.39c.087-1.443 1.109-2.377 2.628-2.377.804 0 1.545.27 2.132.704v-.791c-.574-.37-1.391-.601-2.169-.601" clip-path="url(#m)" style="fill:#5c2483;fill-opacity:1;fill-rule:nonzero;stroke:none" transform="matrix(2.16689 0 0 -2.16689 216.91 162.923)"/><path d="M0 0c-1.926 0-3.281 1.392-3.281 3.255 0 1.876 1.378 3.268 3.307 3.268.662 0 1.289-.167 1.787-.474v-.778a3.04 3.04 0 0 1-1.749.561c-1.519 0-2.591-1.085-2.591-2.577C-2.527 1.749-1.442.688.05.688c.715 0 1.355.23 1.813.601V.511C1.352.18.688 0 0 0" clip-path="url(#n)" style="fill:#5c2483;fill-opacity:1;fill-rule:nonzero;stroke:none" transform="matrix(2.16689 0 0 -2.16689 229.793 170.916)"/><path d="M0 0h1.302v1.762l.754.178V0h2.016v-.677H2.056v-3.649c0-.908.368-1.379 1.135-1.379.331 0 .638.077.881.191v-.675a2.4 2.4 0 0 0-1.008-.207c-1.188 0-1.762.755-1.762 2.019v3.7H0Z" clip-path="url(#o)" style="fill:#5c2483;fill-opacity:1;fill-rule:nonzero;stroke:none" transform="matrix(2.16689 0 0 -2.16689 237.36 157.06)"/><path d="M609.567 296.279h.754v-6.266h-.754zm-.203 2.194c0 .32.254.587.574.587a.585.585 0 0 0 .587-.587.576.576 0 0 0-.587-.574.57.57 0 0 0-.574.574" clip-path="url(#p)" style="fill:#5c2483;fill-opacity:1;fill-rule:nonzero;stroke:none" transform="matrix(2.16689 0 0 -2.16689 -1069.938 799.061)"/><path d="M0 0h.754v-.855l.024-.013c.55.511 1.378.995 2.387.995.664 0 1.212-.204 1.622-.624.42-.434.574-1.009.574-1.863v-3.906h-.754v3.802c0 .691-.101 1.136-.408 1.443-.293.293-.701.447-1.212.447-.844 0-1.635-.421-2.233-1.022v-4.67H0Z" clip-path="url(#q)" style="fill:#5c2483;fill-opacity:1;fill-rule:nonzero;stroke:none" transform="matrix(2.16689 0 0 -2.16689 258.762 157.06)"/><path d="M0 0c.714 0 1.405.307 1.863.778v3.805a3.36 3.36 0 0 1-1.749.511c-1.53 0-2.488-1.138-2.488-2.58C-2.374 1.058-1.416 0 0 0m-.408-2.871c1.416 0 2.271.804 2.271 2.143v.792L1.85.077A2.93 2.93 0 0 0-.127-.664c-1.712 0-3.001 1.288-3.001 3.141 0 1.812 1.265 3.291 3.218 3.291.741 0 1.392-.217 1.926-.523l.601.142V-.741c0-1.709-1.098-2.807-3.001-2.807-.791 0-1.492.203-2.04.537v.764c.548-.394 1.276-.624 2.016-.624" clip-path="url(#r)" style="fill:#5c2483;fill-opacity:1;fill-rule:nonzero;stroke:none" transform="matrix(2.16689 0 0 -2.16689 282.32 169.284)"/><path d="M0 0c.831 0 1.392.09 1.889.421.485.333.805.918.805 1.609 0 .677-.32 1.275-.805 1.608-.497.331-1.058.408-1.889.408h-1.99V0Zm-2.77 4.76H.026c1.009 0 1.736-.127 2.374-.574.651-.447 1.072-1.225 1.072-2.156 0-.932-.421-1.699-1.072-2.144-.638-.46-1.365-.587-2.374-.587H-1.99V-4.48h-.78z" clip-path="url(#s)" style="fill:#5c2483;fill-opacity:1;fill-rule:nonzero;stroke:none" transform="matrix(2.16689 0 0 -2.16689 308.456 160.932)"/><path d="M0 0v1.506c-.497.09-1.072.14-1.569.14-.971 0-1.839-.281-1.839-1.212 0-.831.714-1.175 1.492-1.175A2.9 2.9 0 0 1 0 0m1.275-1.365c-.561 0-.981.267-1.148.764H.103a3.3 3.3 0 0 0-2.133-.791c-1.188 0-2.119.627-2.119 1.776 0 1.302 1.048 1.863 2.516 1.863.535 0 1.096-.064 1.633-.141v.818C0 3.943-.677 4.43-1.85 4.43c-.741 0-1.354-.204-1.825-.498v.701c.433.268 1.098.485 1.926.485 1.635 0 2.49-.792 2.49-2.08V.153c0-.433.14-.854.714-.854.167 0 .331.05.461.1v-.651a2.2 2.2 0 0 0-.641-.113" clip-path="url(#t)" style="fill:#5c2483;fill-opacity:1;fill-rule:nonzero;stroke:none" transform="matrix(2.16689 0 0 -2.16689 328.308 167.874)"/><path d="M0 0h1.302v1.762l.754.178V0h2.016v-.677H2.056v-3.649c0-.908.368-1.379 1.135-1.379.331 0 .638.077.881.191v-.675a2.4 2.4 0 0 0-1.008-.207c-1.188 0-1.762.755-1.762 2.019v3.7H0Z" clip-path="url(#u)" style="fill:#5c2483;fill-opacity:1;fill-rule:nonzero;stroke:none" transform="matrix(2.16689 0 0 -2.16689 334.526 157.06)"/><path d="M0 0h.754v-4.34l.024-.013c.55.511 1.378.995 2.387.995.664 0 1.212-.204 1.622-.624.42-.434.574-1.009.574-1.863v-3.906h-.754v3.803c0 .69-.101 1.137-.408 1.442-.293.293-.701.447-1.212.447-.844 0-1.635-.421-2.233-1.021v-4.671H0Z" clip-path="url(#v)" style="fill:#5c2483;fill-opacity:1;fill-rule:nonzero;stroke:none" transform="matrix(2.16689 0 0 -2.16689 348.089 149.51)"/><path d="M0 0c0 1.455-1.058 2.567-2.501 2.567S-5.004 1.455-5.004 0c0-1.469 1.061-2.577 2.503-2.577S0-1.469 0 0m-5.755 0c0 1.826 1.378 3.255 3.254 3.255S.754 1.826.754 0c0-1.839-1.379-3.268-3.255-3.268S-5.755-1.839-5.755 0" clip-path="url(#w)" style="fill:#5c2483;fill-opacity:1;fill-rule:nonzero;stroke:none" transform="matrix(2.16689 0 0 -2.16689 377.317 163.836)"/><path d="M671.047 299.764h.754v-9.751h-.754z" clip-path="url(#x)" style="fill:#5c2483;fill-opacity:1;fill-rule:nonzero;stroke:none" transform="matrix(2.16689 0 0 -2.16689 -1069.938 799.061)"/><path d="M0 0c0 1.455-1.058 2.567-2.501 2.567S-5.004 1.455-5.004 0c0-1.469 1.061-2.577 2.503-2.577S0-1.469 0 0m-5.755 0c0 1.826 1.378 3.255 3.254 3.255S.754 1.826.754 0c0-1.839-1.378-3.268-3.255-3.268-1.876 0-3.254 1.429-3.254 3.268" clip-path="url(#y)" style="fill:#5c2483;fill-opacity:1;fill-rule:nonzero;stroke:none" transform="matrix(2.16689 0 0 -2.16689 403.43 163.836)"/><path d="M0 0c.714 0 1.405.307 1.863.778v3.805a3.36 3.36 0 0 1-1.749.511c-1.53 0-2.488-1.138-2.488-2.58C-2.374 1.058-1.416 0 0 0m-.408-2.871c1.416 0 2.271.804 2.271 2.143v.792L1.85.077A2.93 2.93 0 0 0-.127-.664c-1.712 0-3.001 1.288-3.001 3.141 0 1.812 1.265 3.291 3.218 3.291.741 0 1.392-.217 1.926-.523l.601.142V-.741c0-1.709-1.098-2.807-3.001-2.807-.791 0-1.492.203-2.04.537v.764c.548-.394 1.276-.624 2.016-.624" clip-path="url(#z)" style="fill:#5c2483;fill-opacity:1;fill-rule:nonzero;stroke:none" transform="matrix(2.16689 0 0 -2.16689 416.036 169.284)"/><path d="m0 0 1.709 3.485-2.667 5.591h.831l1.249-2.657c.333-.701.69-1.455.971-2.106h.027c.317.704.637 1.405.981 2.12l1.252 2.643h.791L.818 0Z" clip-path="url(#A)" style="fill:#5c2483;fill-opacity:1;fill-rule:nonzero;stroke:none" transform="matrix(2.16689 0 0 -2.16689 428.416 176.724)"/></svg>