<svg xmlns="http://www.w3.org/2000/svg" width="164.722" height="59.067" viewBox="0 0 164.722 59.067"><defs><clipPath id="a" clipPathUnits="userSpaceOnUse"><path d="M-338.197-50.044h769.89v382.677h-769.89Z"/></clipPath><clipPath id="b" clipPathUnits="userSpaceOnUse"><path d="M-344.75-70.113h769.89v382.677h-769.89Z"/></clipPath><clipPath id="c" clipPathUnits="userSpaceOnUse"><path d="M-373.196-50.128h769.89V332.55h-769.89Z"/></clipPath><clipPath id="d" clipPathUnits="userSpaceOnUse"><path d="M-387.107-58.675h769.89v382.677h-769.89Z"/></clipPath><clipPath id="e" clipPathUnits="userSpaceOnUse"><path d="M-398.916-70.113h769.89v382.677h-769.89Z"/></clipPath><clipPath id="f" clipPathUnits="userSpaceOnUse"><path d="M-408.95-70.196h769.89v382.677h-769.89Z"/></clipPath><clipPath id="g" clipPathUnits="userSpaceOnUse"><path d="M-427.617-53.39h769.89v382.677h-769.89Z"/></clipPath><clipPath id="h" clipPathUnits="userSpaceOnUse"><path d="M-443.355-67.593h769.89v382.677h-769.89Z"/></clipPath></defs><path d="M0 0c0-.21-.041-.295-.209-.335-1.34-.546-3.017-.672-4.651-.672-6.787 0-10.809 4.653-10.809 10.684 0 6.202 4.609 10.812 11.522 10.812 2.096 0 3.226-.21 3.938-.461.168-.083.209-.209.209-.461l-.041-3.728c0-.293-.168-.293-.335-.253-.88.335-1.97.546-3.603.546-3.814 0-6.496-2.264-6.496-6.286 0-4.569 3.31-6.327 6.536-6.327 1.509 0 2.809.127 3.646.42.209.082.293-.044.293-.211Z" clip-path="url(#a)" style="fill:#fff;fill-opacity:1;fill-rule:nonzero;stroke:none" transform="matrix(1.33333 0 0 -1.33333 20.892 46.213)"/><path d="M0 0c.167 0 .293-.041.376-.251C3.1-8.086 4.525-12.612 5.069-14.665c1.382 4.233 2.85 8.547 4.735 14.414.084.167.209.251.461.251h4.316c.251 0 .293-.125.251-.334-3.018-9.261-7.819-20.925-11.214-28.674-.084-.169-.208-.295-.543-.295l-4.59-.406c-.251 0-.309.139-.209.336a164 164 0 0 1 4.196 9.092c.084.253.125.379.041.672C1.382-16.844-2.64-6.872-5.154-.293c-.084.168.04.293.251.293Z" clip-path="url(#b)" style="fill:#fff;fill-opacity:1;fill-rule:nonzero;stroke:none" transform="matrix(1.33333 0 0 -1.33333 29.63 19.455)"/><path d="M0 0c0-.252-.041-.419-.251-.503-1.132-.42-2.179-.586-3.561-.586-3.436 0-5.49 1.675-5.49 5.824v11.019h-2.639c-.208.041-.294.127-.294.378v3.52c0 .25.086.334.335.334l2.598.009c.041 1.468 0 3.703 0 5.145.041.209.126.335.335.377l4.447.394c.2.02.293 0 .293-.209v-5.707l4.102-.009c.211 0 .293-.084.293-.293v-3.646c0-.208-.082-.293-.293-.293h-4.107V5.823c0-1.842.586-2.723 2.39-2.723.542 0 1.005.041 1.591.167.126.043.251 0 .251-.25Z" clip-path="url(#c)" style="fill:#fff;fill-opacity:1;fill-rule:nonzero;stroke:none" transform="matrix(1.33333 0 0 -1.33333 67.558 46.102)"/><path d="M0 0c-.63.084-1.342.126-2.305.126-3.311 0-4.776-1.089-4.776-2.891 0-1.551 1.088-2.891 4.104-2.891 1.091 0 2.054.126 2.977.502zm4.902-4.944c0-.921 0-1.76.084-2.64 0-.083 0-.125-.084-.168C1.467-9.218-.963-9.637-3.814-9.637c-4.567 0-8.212 2.137-8.212 6.872 0 4.441 3.98 6.663 9.428 6.663 1.256 0 2.219-.044 2.598-.084v.502c0 .965-.545 3.143-4.233 3.143-2.093 0-3.939-.42-5.49-1.175-.126-.04-.335 0-.335.253v3.645c0 .209.042.293.253.418 1.802.839 4.107 1.259 6.37 1.259 5.823 0 8.337-3.647 8.337-8.298z" clip-path="url(#d)" style="fill:#fff;fill-opacity:1;fill-rule:nonzero;stroke:none" transform="matrix(1.33333 0 0 -1.33333 86.105 34.706)"/><path d="M0 0c.252 0 .379-.084.461-.334.209-.545.376-1.594.42-2.515C2.305-1.088 4.582.419 7.473.419c.251 0 .446-.121.446-.433v-4.3c0-.211-.084-.295-.377-.295-2.974.084-5.446-.963-6.41-2.221v-13.491c0-.253-.125-.335-.378-.335h-4.358c-.291 0-.377.126-.377.335 0 0 .015 18.591.015 20.07 0 .21.042.251.253.251z" clip-path="url(#e)" style="fill:#fff;fill-opacity:1;fill-rule:nonzero;stroke:none" transform="matrix(1.33333 0 0 -1.33333 101.851 19.455)"/><path d="M0 0c0 .186.152.338.338.338a4.773 4.773 0 0 0 4.773-4.774v-15.972c0-.251-.086-.334-.379-.334H.419c-.293 0-.419.126-.419.377Z" clip-path="url(#f)" style="fill:#fff;fill-opacity:1;fill-rule:nonzero;stroke:none" transform="matrix(1.33333 0 0 -1.33333 115.229 19.345)"/><path d="M0 0a6.415 6.415 0 0 0-6.356 6.475 6.415 6.415 0 1 0 12.831-.119A6.415 6.415 0 0 0 0 0m1.573 16.958c-1.684.25-4.143.078-5.373.158-4.321.291-7.287 4.505-7.295 8.695-.001 3.185-1.797 4.984-4.168 5.418a5.08 5.08 0 0 1-4.086-1.023 5.08 5.08 0 0 1-1.845-3.785c-.066-2.409 1.322-4.539 4.439-5.198 4.098-.875 7.607-4.651 6.996-8.937-.177-1.22-.867-3.725-.969-5.425C-11.099.951-6.335-4.203-.305-4.331c2.655-.057 5.118.828 7.028 2.376s3.318 3.767 3.778 6.383c1.068 5.825-2.936 11.643-8.928 12.53" clip-path="url(#g)" style="fill:#fff;fill-opacity:1;fill-rule:nonzero;stroke:none" transform="matrix(1.33333 0 0 -1.33333 140.119 41.753)"/><path d="M0 0c0 .424-.31.73-.905.73h-.751V-.712h.751C-.31-.712 0-.443 0 0m-1.656-1.195v-1.481h-.538v3.887h1.289C-.018 1.211.559.75.559.018c0-.577-.367-.962-.905-1.115L.751-2.676H.114L-.887-1.195zm3.811.463c0 1.79-1.25 3.061-3.06 3.061-1.809 0-3.08-1.271-3.08-3.061 0-1.809 1.271-3.08 3.08-3.08s3.06 1.271 3.06 3.08m-6.68 0c0 2.06 1.523 3.581 3.62 3.581S2.714 1.328 2.714-.732c0-2.08-1.521-3.6-3.619-3.6-2.097 0-3.62 1.52-3.62 3.6" clip-path="url(#h)" style="fill:#fff;fill-opacity:1;fill-rule:nonzero;stroke:none" transform="matrix(1.33333 0 0 -1.33333 161.103 22.815)"/></svg>