<svg xmlns="http://www.w3.org/2000/svg" width="1813" height="674" viewBox="0 0 479.69 178.329"><defs><clipPath id="a" clipPathUnits="userSpaceOnUse"><path d="M-126.403-77.682H295.92v193.455h-422.323Z"/></clipPath><clipPath id="b" clipPathUnits="userSpaceOnUse"><path d="M-137.943-113.021H284.38V80.434h-422.323Z"/></clipPath><clipPath id="c" clipPathUnits="userSpaceOnUse"><path d="M-188.033-77.829H234.29v193.455h-422.323Z"/></clipPath><clipPath id="d" clipPathUnits="userSpaceOnUse"><path d="M-212.528-92.88h422.323v193.455h-422.323Z"/></clipPath><clipPath id="e" clipPathUnits="userSpaceOnUse"><path d="M-233.323-113.021H189V80.434h-422.323Z"/></clipPath><clipPath id="f" clipPathUnits="userSpaceOnUse"><path d="M-250.99-113.166h422.323V80.29H-250.99Z"/></clipPath><clipPath id="g" clipPathUnits="userSpaceOnUse"><path d="M-283.861-83.573h422.323v193.455h-422.323Z"/></clipPath><clipPath id="h" clipPathUnits="userSpaceOnUse"><path d="M-311.575-108.582h422.323V84.873h-422.323Z"/></clipPath></defs><path d="M0 0c0-.373-.071-.519-.368-.59-2.36-.961-5.313-1.183-8.189-1.183-11.953 0-19.034 8.192-19.034 18.814 0 10.92 8.116 19.038 20.288 19.038 3.691 0 5.681-.37 6.935-.812.297-.146.368-.368.368-.812l-.071-6.565c0-.516-.297-.516-.59-.445-1.551.59-3.47.961-6.346.961-6.716 0-11.439-3.985-11.439-11.069 0-8.044 5.829-11.14 11.511-11.14 2.656 0 4.945.222 6.419.738.368.146.516-.076.516-.37Z" clip-path="url(#a)" style="fill:#5c2483;fill-opacity:1;fill-rule:nonzero;stroke:none" transform="matrix(2.16689 0 0 -2.16689 65.002 133.915)"/><path d="M0 0c.294 0 .516-.071.661-.442 4.798-13.797 7.306-21.767 8.264-25.381 2.435 7.454 5.02 15.051 8.338 25.381.148.294.368.442.812.442h7.6c.442 0 .516-.22.442-.587C20.803-16.895 12.349-37.434 6.372-51.08c-.148-.296-.368-.519-.958-.519l-8.081-.714c-.442 0-.545.243-.368.59 2.215 4.43 5.025 10.404 7.388 16.011.148.445.219.667.071 1.183-1.99 4.869-9.073 22.428-13.5 34.013-.148.296.071.516.442.516Z" clip-path="url(#b)" style="fill:#5c2483;fill-opacity:1;fill-rule:nonzero;stroke:none" transform="matrix(2.16689 0 0 -2.16689 90.006 57.338)"/><path d="M0 0c0-.445-.071-.738-.442-.886-1.992-.739-3.837-1.032-6.271-1.032-6.049 0-9.666 2.95-9.666 10.256v19.404h-4.647c-.368.071-.518.222-.518.664v6.199c0 .44.15.588.59.588l4.575.016c.071 2.585 0 6.52 0 9.06.071.368.222.59.59.664l7.83.693c.351.035.516 0 .516-.367v-10.05l7.223-.016c.371 0 .516-.148.516-.516v-6.419c0-.368-.145-.516-.516-.516h-7.231V10.254c0-3.245 1.032-4.795 4.207-4.795.955 0 1.77.071 2.802.294.222.076.442 0 .442-.44Z" clip-path="url(#c)" style="fill:#5c2483;fill-opacity:1;fill-rule:nonzero;stroke:none" transform="matrix(2.16689 0 0 -2.16689 198.546 133.596)"/><path d="M0 0c-1.109.148-2.363.222-4.059.222-5.829 0-8.409-1.918-8.409-5.091 0-2.731 1.915-5.091 7.226-5.091 1.921 0 3.617.222 5.242.884zm8.632-8.706c0-1.622 0-3.098.148-4.649 0-.145 0-.219-.148-.296-6.049-2.58-10.328-3.318-15.348-3.318-8.041 0-14.461 3.762-14.461 12.1 0 7.819 7.01 11.733 16.602 11.733 2.212 0 3.908-.077 4.575-.148V7.6c0 1.698-.961 5.535-7.454 5.535-3.686 0-6.935-.741-9.666-2.069-.222-.072-.59 0-.59.444v6.42c0 .368.074.516.444.735 3.173 1.477 7.232 2.218 11.217 2.218 10.254 0 14.681-6.422 14.681-14.612z" clip-path="url(#d)" style="fill:#5c2483;fill-opacity:1;fill-rule:nonzero;stroke:none" transform="matrix(2.16689 0 0 -2.16689 251.624 100.983)"/><path d="M0 0c.445 0 .667-.148.812-.587.368-.961.662-2.808.739-4.43C4.059-1.916 8.068.738 13.159.738c.442 0 .786-.214.786-.762v-7.573c0-.37-.148-.519-.664-.519-5.237.149-9.59-1.696-11.289-3.91v-23.757c0-.445-.219-.59-.664-.59h-7.673c-.514 0-.665.222-.665.59 0 0 .027 32.737.027 35.341 0 .371.074.442.444.442z" clip-path="url(#e)" style="fill:#5c2483;fill-opacity:1;fill-rule:nonzero;stroke:none" transform="matrix(2.16689 0 0 -2.16689 296.685 57.338)"/><path d="M0 0c0 .328.267.595.595.595a8.404 8.404 0 0 0 8.404-8.406v-28.125c0-.442-.151-.588-.667-.588H.738c-.516 0-.738.222-.738.664Z" clip-path="url(#f)" style="fill:#5c2483;fill-opacity:1;fill-rule:nonzero;stroke:none" transform="matrix(2.16689 0 0 -2.16689 334.966 57.025)"/><path d="M0 0c-6.24.058-11.251 5.163-11.193 11.402.056 6.239 5.162 11.254 11.402 11.196 6.239-.059 11.251-5.163 11.193-11.405C11.346 4.953 6.239-.058 0 0m2.77 29.861c-2.966.439-7.295.138-9.462.278-7.607.513-12.831 7.933-12.844 15.31-.003 5.61-3.165 8.777-7.34 9.542-2.654.495-5.242-.259-7.195-1.802-1.911-1.588-3.186-3.967-3.249-6.666-.117-4.241 2.328-7.991 7.816-9.152 7.216-1.54 13.395-8.19 12.32-15.737-.312-2.148-1.527-6.559-1.706-9.552C-19.544 1.675-11.156-7.401-.537-7.626c4.675-.101 9.012 1.458 12.376 4.183 3.36 2.726 5.842 6.634 6.652 11.241C20.372 18.054 13.32 28.3 2.77 29.861" clip-path="url(#g)" style="fill:#35b7b8;fill-opacity:1;fill-rule:nonzero;stroke:none" transform="matrix(2.16689 0 0 -2.16689 406.194 121.15)"/><path d="M0 0c0 .746-.545 1.286-1.593 1.286h-1.323v-2.54h1.323C-.545-1.254 0-.781 0 0m-2.916-2.104v-2.609h-.947v6.846h2.27C-.032 2.133.984 1.32.984.032c0-1.016-.645-1.694-1.593-1.964l1.932-2.781H.201l-1.762 2.609zm6.71.815c0 3.152-2.201 5.39-5.387 5.39s-5.424-2.238-5.424-5.39c0-3.186 2.238-5.424 5.424-5.424s5.387 2.238 5.387 5.424m-11.761 0c0 3.628 2.68 6.306 6.374 6.306s6.372-2.678 6.372-6.306c0-3.662-2.678-6.34-6.372-6.34s-6.374 2.678-6.374 6.34" clip-path="url(#h)" style="fill:#5c2483;fill-opacity:1;fill-rule:nonzero;stroke:none" transform="matrix(2.16689 0 0 -2.16689 466.246 66.957)"/></svg>